<?xml version="1.0" standalone="no"?>
<!DOCTYPE svg PUBLIC "-//W3C//DTD SVG 20010904//EN"
 "http://www.w3.org/TR/2001/REC-SVG-20010904/DTD/svg10.dtd">
<svg version="1.0" xmlns="http://www.w3.org/2000/svg"
 width="500.000000pt" height="500.000000pt" viewBox="0 0 500.000000 500.000000"
 preserveAspectRatio="xMidYMid meet">

<g transform="translate(0.000000,500.000000) scale(0.100000,-0.100000)"
fill="" stroke="none">
<path d="M0 2500 l0 -2500 2500 0 2500 0 0 2500 0 2500 -2500 0 -2500 0 0
-2500z m2865 1869 c6 -33 -15 -109 -29 -109 -4 0 -6 42 -6 92 0 83 2 90 14 72
8 -11 17 -36 21 -55z m-474 -243 c158 -34 301 -124 390 -247 l19 -27 -62 -37
-62 -36 -88 12 c-207 28 -444 -20 -627 -128 -94 -55 -206 -157 -277 -249 -62
-82 -62 -82 -68 -52 -11 57 -6 224 9 283 23 89 87 213 145 277 86 96 237 182
365 208 64 13 185 11 256 -4z m839 -247 c318 -88 516 -388 470 -711 l-11 -83
50 -95 c27 -52 62 -135 77 -185 25 -81 27 -106 28 -250 1 -138 -2 -172 -22
-244 -92 -338 -337 -580 -680 -673 -95 -26 -335 -31 -420 -9 l-54 13 51 28
c82 45 175 115 223 168 34 39 44 57 44 85 0 20 -3 34 -7 31 -4 -2 -6 2 -5 10
1 8 30 35 63 61 124 92 251 251 315 392 58 129 81 241 82 403 1 161 -13 236
-67 370 -57 140 -129 245 -246 359 l-66 64 0 143 0 144 50 0 c28 0 84 -9 125
-21z m-606 -160 c171 -41 327 -130 452 -260 77 -81 103 -116 145 -192 l27 -51
-102 -43 c-79 -33 -106 -50 -119 -73 -10 -17 -22 -30 -27 -30 -5 0 -64 16
-131 35 -67 20 -237 65 -378 101 -141 36 -312 80 -381 99 -69 19 -144 39 -167
45 -24 6 -43 17 -43 24 0 23 -28 40 -44 27 -12 -10 -9 -27 18 -109 26 -77 31
-103 23 -125 -13 -41 -1 -77 26 -77 20 0 28 -16 72 -140 48 -138 49 -140 84
-150 20 -5 181 -49 357 -96 l322 -87 35 -95 c20 -53 35 -98 33 -100 -2 -2
-223 55 -491 127 -269 72 -492 128 -496 125 -5 -3 -9 -13 -9 -23 0 -15 29 -26
163 -62 89 -23 324 -87 522 -140 287 -77 363 -94 373 -85 10 10 4 35 -33 135
-25 67 -45 127 -45 134 0 6 59 111 132 232 l132 221 91 39 c49 22 94 40 99 40
14 0 45 -99 62 -200 61 -348 -94 -716 -386 -915 -187 -127 -380 -176 -623
-159 -119 9 -199 31 -308 84 -119 58 -171 95 -259 184 -167 168 -255 372 -266
616 -13 265 79 506 264 693 128 130 278 211 477 260 22 6 100 10 174 11 104 1
154 -4 225 -20z m-1234 -167 c105 -52 109 -201 8 -275 -18 -14 -44 -21 -75
-21 l-48 -1 -3 158 -3 157 43 0 c24 0 59 -8 78 -18z m586 -243 c35 -9 43 -15
39 -29 -3 -9 -12 -37 -19 -61 -9 -29 -14 -36 -15 -21 -1 12 -7 22 -15 22 -11
0 -46 74 -46 97 0 5 8 4 56 -8z m182 -45 c41 -12 52 -19 48 -32 -3 -9 -10 -38
-17 -65 -9 -36 -15 -46 -28 -43 -9 3 -44 12 -78 22 -35 9 -63 22 -63 28 0 11
16 76 26 105 4 14 14 13 112 -15z m118 -34 c16 -5 48 -14 71 -20 l41 -10 -15
-58 c-8 -31 -16 -59 -18 -61 -9 -8 -145 32 -145 43 0 15 30 116 34 116 2 0 16
-4 32 -10z m-178 -116 c37 -10 68 -18 69 -18 1 -1 -4 -24 -11 -51 -14 -55 -18
-56 -98 -34 -29 7 -39 16 -48 44 -12 36 -6 75 11 75 5 0 40 -7 77 -16z m187
-52 c33 -9 59 -20 58 -25 -1 -4 -5 -28 -9 -52 -5 -36 -10 -45 -23 -41 -9 3
-44 12 -79 22 -43 11 -61 21 -58 30 3 7 8 29 12 48 7 41 12 42 99 18z m695
-22 c11 0 -52 -110 -63 -110 -5 0 -6 8 -3 18 3 9 10 37 16 60 8 33 15 42 26
38 9 -3 20 -6 24 -6z m-886 -66 c41 -7 43 -15 17 -89 l-18 -50 -18 40 c-38 89
-46 118 -31 112 8 -3 31 -9 50 -13z m341 4 c42 -11 45 -14 45 -46 0 -27 -3
-33 -16 -28 -9 4 -36 11 -61 18 -32 8 -43 15 -39 25 3 8 6 21 6 29 0 17 7 17
65 2z m-168 -53 l51 -15 -13 -51 c-8 -28 -16 -54 -19 -57 -3 -3 -38 4 -78 15
-80 22 -77 18 -57 96 11 43 6 43 116 12z m153 -42 c65 -18 66 -20 48 -88 -9
-33 -16 -44 -28 -40 -8 2 -36 9 -63 16 -26 6 -49 15 -52 19 -5 8 23 110 31
110 2 0 31 -7 64 -17z m557 -958 c0 -8 -4 -12 -9 -9 -5 3 -6 10 -3 15 9 13 12
11 12 -6z m205 -394 c28 -25 33 -36 33 -76 0 -40 -5 -51 -33 -76 -94 -84 -225
19 -167 131 20 38 41 49 92 50 33 0 50 -6 75 -29z m-825 -98 c-3 -10 -5 -4 -5
12 0 17 2 24 5 18 2 -7 2 -21 0 -30z m799 -288 c55 -23 64 -57 64 -247 0 -176
-5 -196 -53 -232 -25 -18 -42 -21 -137 -21 -177 0 -193 24 -188 281 3 174 5
180 63 216 39 23 197 26 251 3z m-1066 -70 c28 -41 53 -75 55 -75 2 0 27 34
55 75 l51 75 65 0 66 0 -4 -207 c-3 -227 -6 -240 -61 -273 -64 -40 -66 -37
-69 127 l-3 146 -45 -56 c-25 -31 -49 -56 -55 -56 -5 0 -31 25 -57 55 l-48 54
0 -95 c0 -127 -26 -177 -98 -191 l-32 -6 1 193 c0 219 7 252 58 286 53 36 65
31 121 -52z m650 46 c0 -17 -10 -42 -24 -58 -22 -25 -29 -27 -86 -25 -36 2
-68 -2 -76 -9 -10 -9 -14 -40 -14 -124 0 -63 3 -120 6 -129 5 -12 21 -16 75
-16 l69 0 0 40 c0 33 -4 42 -29 54 -30 16 -41 34 -41 68 0 19 5 20 66 16 91
-6 104 -22 104 -129 0 -135 -26 -159 -169 -159 -176 0 -191 20 -191 248 0 243
6 251 193 252 l117 0 0 -29z m-916 -617 c26 -10 18 -27 -9 -20 -18 5 -25 2
-25 -8 0 -7 11 -17 24 -20 28 -7 41 -33 25 -52 -12 -15 -37 -18 -63 -8 -28 11
-17 24 14 18 38 -8 40 10 3 28 -33 16 -38 31 -18 52 18 18 25 19 49 10z m399
-14 c13 -12 11 -68 -3 -85 -18 -22 -67 -19 -80 4 -17 32 -12 69 12 85 21 15
53 13 71 -4z m-981 -32 c2 -36 7 -44 26 -46 20 -3 22 1 22 42 0 26 5 46 11 46
6 0 9 -21 7 -52 -3 -50 -5 -53 -31 -56 -41 -5 -57 14 -57 64 0 56 18 57 22 2z
m153 10 l20 -33 3 33 c5 53 22 36 22 -23 0 -66 -15 -72 -47 -17 l-22 37 -1
-37 c0 -27 -4 -38 -15 -38 -12 0 -15 13 -15 55 0 46 3 55 18 55 10 0 27 -15
37 -32z m95 -13 c0 -41 2 -45 25 -45 14 0 25 -4 25 -10 0 -5 -16 -10 -35 -10
l-35 0 0 55 c0 30 5 55 10 55 6 0 10 -20 10 -45z m128 38 c-32 -5 -38 -33 -8
-33 11 0 20 -4 20 -10 0 -5 -9 -10 -20 -10 -11 0 -20 -7 -20 -15 0 -9 9 -15
25 -15 14 0 25 -4 25 -10 0 -5 -18 -10 -40 -10 l-40 0 0 55 0 55 43 -1 c29 -2
34 -3 15 -6z m117 -44 c17 -50 13 -80 -6 -46 -6 9 -19 17 -29 17 -10 0 -23 -8
-29 -17 -18 -33 -20 -7 -4 45 22 70 45 70 68 1z m155 31 c0 -15 7 -20 25 -20
18 0 25 5 25 20 0 11 7 20 15 20 12 0 15 -13 15 -55 0 -42 -3 -55 -15 -55 -9
0 -15 9 -15 25 0 20 -5 25 -25 25 -20 0 -25 -5 -25 -25 0 -14 -4 -25 -10 -25
-5 0 -10 25 -10 55 0 30 5 55 10 55 6 0 10 -9 10 -20z m166 3 c12 -17 14 -17
28 2 21 29 30 12 12 -24 -9 -16 -16 -39 -16 -51 0 -11 -4 -20 -10 -20 -5 0
-10 10 -10 21 0 12 -9 37 -21 55 -22 36 -8 49 17 17z m226 -25 c2 -35 7 -43
23 -43 16 0 21 8 23 43 4 55 22 55 22 -1 0 -47 -13 -67 -45 -67 -32 0 -45 20
-45 67 0 56 18 56 22 1z m174 27 c4 -8 1 -22 -5 -29 -7 -8 -8 -17 -3 -20 5 -3
12 -15 15 -26 7 -27 -16 -26 -28 2 -15 32 -35 35 -35 4 0 -14 -4 -26 -10 -26
-5 0 -10 25 -10 55 l0 55 35 0 c23 0 38 -6 41 -15z m94 -40 c0 -42 -3 -55 -15
-55 -12 0 -15 13 -15 55 0 42 3 55 15 55 12 0 15 -13 15 -55z m77 23 l18 -33
3 33 c5 53 22 36 22 -23 0 -31 -4 -55 -10 -55 -6 0 -21 17 -33 38 l-22 37 -3
-37 c-5 -58 -22 -45 -22 17 0 65 19 74 47 23z m125 0 l27 -33 1 33 c0 17 5 32
10 32 6 0 10 -25 10 -55 0 -66 -14 -71 -50 -17 l-25 37 -3 -37 c-5 -58 -22
-45 -22 17 0 65 12 70 52 23z m126 25 c-35 -5 -37 -33 -3 -33 14 0 25 -4 25
-10 0 -5 -11 -10 -25 -10 -16 0 -25 -6 -25 -15 0 -9 9 -15 25 -15 14 0 25 -4
25 -10 0 -5 -16 -10 -35 -10 l-35 0 0 55 0 55 38 -1 c30 -2 32 -3 10 -6z m128
-8 c4 -8 1 -21 -4 -28 -7 -8 -7 -18 -2 -27 6 -8 10 -21 10 -27 0 -22 -16 -14
-28 12 -6 14 -16 25 -22 25 -5 0 -10 -11 -10 -25 0 -14 -4 -25 -10 -25 -5 0
-10 25 -10 55 l0 55 35 0 c23 0 38 -6 41 -15z m110 -25 l12 -35 16 38 c25 57
46 49 46 -18 0 -61 -19 -77 -21 -17 l-1 37 -15 -38 c-19 -44 -32 -44 -49 4
l-12 34 -1 -37 c-1 -61 -21 -44 -21 18 0 46 3 55 17 52 9 -2 22 -19 29 -38z
m177 -12 c17 -55 14 -75 -7 -45 -17 22 -42 22 -55 0 -19 -34 -23 -4 -6 46 23
69 46 69 68 -1z m113 37 c4 -8 1 -22 -5 -29 -7 -8 -8 -17 -3 -20 5 -3 12 -15
15 -26 7 -27 -16 -26 -28 2 -15 32 -35 35 -35 4 0 -14 -4 -26 -10 -26 -5 0
-10 25 -10 55 l0 55 35 0 c23 0 38 -6 41 -15z m55 -7 l0 -23 16 23 c8 12 22
22 31 22 13 0 13 -2 -1 -18 -23 -25 -21 -41 5 -69 17 -19 19 -23 5 -23 -8 0
-25 12 -36 26 l-21 27 0 -27 c0 -14 -4 -26 -10 -26 -5 0 -10 25 -10 55 0 30 5
55 10 55 6 0 10 -10 11 -22z m137 15 c-32 -5 -38 -33 -8 -33 11 0 20 -4 20
-10 0 -5 -9 -10 -20 -10 -11 0 -20 -7 -20 -15 0 -9 9 -15 25 -15 14 0 25 -4
25 -10 0 -5 -18 -10 -40 -10 l-40 0 0 55 0 55 43 -1 c29 -2 34 -3 15 -6z m105
-3 c-19 -8 -23 -17 -23 -55 0 -25 -4 -45 -10 -45 -5 0 -10 22 -10 49 0 39 -4
51 -17 54 -10 3 5 5 32 5 39 1 45 -1 28 -8z m85 3 c-32 -5 -38 -33 -8 -33 11
0 20 -4 20 -10 0 -5 -9 -10 -20 -10 -11 0 -20 -7 -20 -15 0 -9 9 -15 25 -15
14 0 25 -4 25 -10 0 -5 -18 -10 -40 -10 l-40 0 0 55 0 55 43 -1 c29 -2 34 -3
15 -6z m119 -25 c-2 -18 -1 -43 4 -55 6 -17 5 -23 -5 -23 -8 0 -17 11 -20 25
-4 14 -11 25 -16 25 -6 0 -10 -11 -10 -25 0 -16 -6 -25 -15 -25 -12 0 -15 13
-15 55 l0 55 41 0 c41 0 41 0 36 -32z"/>
<path d="M1967 2517 c-18 -14 -30 -35 -34 -59 -5 -33 -2 -41 30 -73 38 -38 63
-43 107 -20 59 30 68 98 21 146 -37 36 -84 39 -124 6z"/>
<path d="M2625 2336 c-33 -33 -40 -67 -21 -105 49 -94 176 -59 176 48 0 72
-102 110 -155 57z"/>
<path d="M2964 1037 c-2 -7 -3 -71 -2 -143 l3 -129 64 -3 c45 -2 67 1 72 10
14 21 11 252 -3 266 -17 17 -127 16 -134 -1z"/>
<path d="M2160 475 c-7 -9 -10 -25 -6 -41 10 -37 50 -30 54 10 5 40 -25 59
-48 31z"/>
<path d="M1690 455 c0 -8 5 -15 10 -15 6 0 10 7 10 15 0 8 -4 15 -10 15 -5 0
-10 -7 -10 -15z"/>
<path d="M2407 484 c-13 -13 -7 -24 14 -24 11 0 19 5 17 12 -5 14 -22 21 -31
12z"/>
<path d="M2950 476 c0 -10 9 -16 21 -16 24 0 21 23 -4 28 -10 2 -17 -3 -17
-12z"/>
<path d="M3250 456 c0 -9 5 -16 10 -16 6 0 10 4 10 9 0 6 -4 13 -10 16 -5 3
-10 -1 -10 -9z"/>
<path d="M3357 484 c-13 -13 -7 -24 14 -24 11 0 19 5 17 12 -5 14 -22 21 -31
12z"/>
<path d="M3860 476 c0 -9 7 -16 16 -16 17 0 14 22 -4 28 -7 2 -12 -3 -12 -12z"/>
</g>
</svg>
