<svg width="697" height="452" viewBox="0 0 697 452" fill="none" xmlns="http://www.w3.org/2000/svg">
<path fill-rule="evenodd" clip-rule="evenodd" d="M519.455 102.704H343.633L402.812 0.199707H697L606.088 157.669C654.839 184.189 687.928 235.864 687.928 295.266C687.928 381.717 617.845 451.8 531.394 451.8C530.941 451.8 530.489 451.798 530.038 451.794H284.198L343.379 349.285H531.38L531.393 349.285H531.395C561.23 349.284 585.416 325.097 585.416 295.26C585.416 265.424 561.23 241.236 531.395 241.235H531.393H439.473L519.455 102.704Z" fill="white"/>
<path fill-rule="evenodd" clip-rule="evenodd" d="M326.043 49.9388L354.76 0.199719L219.395 0.199707L-0.000854492 202.896L243.872 438.375L269.557 394.034L72.4321 203.694L238.855 49.9388L326.043 49.9388ZM235.281 40.8024L59.1272 203.547H59.1266L235.28 40.8024H235.281Z" fill="#DD0011"/>
</svg>
